<svg id="层_1" data-name="层 1" xmlns="http://www.w3.org/2000/svg" xmlns:xlink="http://www.w3.org/1999/xlink" viewBox="0 0 1080.01 1080.01"><defs><style>.cls-1{fill:url(#未命名的渐变_8);}.cls-2{fill:#fff;fill-rule:evenodd;}</style><linearGradient id="未命名的渐变_8" x1="960" y1="1080" x2="960" gradientTransform="translate(420.01 1500) rotate(-90)" gradientUnits="userSpaceOnUse"><stop offset="0" stop-color="#16c9f8"/><stop offset="0.05" stop-color="#17c2f7"/><stop offset="0.32" stop-color="#199ff3"/><stop offset="0.58" stop-color="#1b85f0"/><stop offset="0.81" stop-color="#1d75ef"/><stop offset="1" stop-color="#1d70ee"/><stop offset="1" stop-color="#1a94f2"/><stop offset="1" stop-color="#18b2f5"/><stop offset="1" stop-color="#17c4f7"/><stop offset="1" stop-color="#16cbf8"/></linearGradient></defs><rect class="cls-1" x="420" width="1080" height="1080" rx="90" transform="translate(1080.01 -419.99) rotate(90)"/><path class="cls-2" d="M1302.6,620.4c-1.24-19.79-33.08-29.37-38.34-35.87-19.19-23.68-64.56-60.16-114.72-90.92-9.59-5.87-13-45.14-34-58.43-21.22-13.43-70.19-36.19-70.19-36.19s12.68-20.71,19.79-73-13.6-105.14-13.6-105.14-30.93,30.29-43.3,66.79-18.55,89.06-18.55,89.06-2.16-55.66-3.71-82.87S952.87,198,946.37,198.61s-39.58,71.74-39.58,71.74S880.45,307.81,864.73,326c-27.21,31.53-15.16,59.05-21,69.58-5.16,9.22-64.32,45.45-96.48,73.9S617.35,600.61,617.35,600.61,643.6,616.48,647,630.3c10.11,40.62,47.06,83.84,61.85,107.61C733,776.67,882.05,881.39,882.05,881.39s-3.09-47.93,0-70.5,13.14-75.31,39.58-95.25c25.15-19,51.13-16.49,51.13-16.49s45.76,2.33,74.47,13.92c69.22,27.92,101.46,36,121.78,34.73,16.54-1.07,43.29-21.95,59.37-37.1s37.11-45.36,45.77-55.66S1303.84,640.19,1302.6,620.4Zm-210.28-81.63A24.74,24.74,0,1,1,1117.06,514,24.75,24.75,0,0,1,1092.32,538.77Z" transform="translate(-420 0)"/></svg>